<?xml version="1.0" encoding="UTF-8" standalone="no"?>
<!-- Created with Inkscape (http://www.inkscape.org/) -->

<svg
   xmlns:dc="http://purl.org/dc/elements/1.1/"
   xmlns:cc="http://creativecommons.org/ns#"
   xmlns:rdf="http://www.w3.org/1999/02/22-rdf-syntax-ns#"
   xmlns:svg="http://www.w3.org/2000/svg"
   xmlns="http://www.w3.org/2000/svg"
   xmlns:sodipodi="http://sodipodi.sourceforge.net/DTD/sodipodi-0.dtd"
   xmlns:inkscape="http://www.inkscape.org/namespaces/inkscape"
   width="16"
   height="16"
   id="svg2"
   version="1.1"
   inkscape:version="0.48.4 r9939"
   sodipodi:docname="icon.svg"
   inkscape:export-filename="/home/stephen/.local/share/rhythmbox/plugins/beets-web/icon.png"
   inkscape:export-xdpi="90"
   inkscape:export-ydpi="90">
  <defs
     id="defs4" />
  <sodipodi:namedview
     id="base"
     pagecolor="#ffffff"
     bordercolor="#666666"
     borderopacity="1.0"
     inkscape:pageopacity="0.0"
     inkscape:pageshadow="2"
     inkscape:zoom="1"
     inkscape:cx="-10.09281"
     inkscape:cy="-10.838051"
     inkscape:document-units="px"
     inkscape:current-layer="layer1"
     showgrid="false"
     fit-margin-top="0"
     fit-margin-left="0"
     fit-margin-right="0"
     fit-margin-bottom="0"
     inkscape:window-width="1175"
     inkscape:window-height="788"
     inkscape:window-x="669"
     inkscape:window-y="157"
     inkscape:window-maximized="0" />
  <metadata
     id="metadata7">
    <rdf:RDF>
      <cc:Work
         rdf:about="">
        <dc:format>image/svg+xml</dc:format>
        <dc:type
           rdf:resource="http://purl.org/dc/dcmitype/StillImage" />
        <dc:title></dc:title>
      </cc:Work>
    </rdf:RDF>
  </metadata>
  <g
     inkscape:label="Layer 1"
     inkscape:groupmode="layer"
     id="layer1"
     transform="translate(-451.46159,-474.96369)">
    <path
       style="fill:#666666;stroke:none"
       d="m 463.29553,490.58665 c -0.46267,-0.61572 -1.67875,-1.83695 -2.3413,-2.35123 -0.72139,-0.55998 -1.08897,-0.70642 -2.22704,-0.88728 -1.18759,-0.18872 -1.48054,-0.29516 -1.862,-0.67662 -0.37413,-0.37412 -0.82558,-1.10935 -1.03338,-1.68298 -0.21448,-0.59198 -0.21145,-1.55522 0.007,-2.12079 0.21683,-0.56224 0.55727,-1.07884 1.04721,-1.58906 0.22697,-0.23636 0.40007,-0.43045 0.38469,-0.43128 -0.31614,-0.0174 -3.72573,-0.62357 -3.77293,-0.67076 -0.0366,-0.0367 -0.0473,-0.12786 -0.0235,-0.20262 0.0494,-0.15517 0.17027,-0.17043 2.29721,-0.28991 0.69631,-0.0391 1.39404,-0.0871 1.5505,-0.10654 l 0.28444,-0.0353 -0.71217,-2.1341 c -0.39169,-1.17376 -0.71217,-2.18525 -0.71217,-2.24775 0,-0.10254 0.1294,-0.19675 0.27035,-0.19675 0.0297,0 0.64841,0.72297 1.37511,1.6066 1.1352,1.38036 1.33641,1.59477 1.42897,1.52265 0.0593,-0.0463 0.57843,-0.49399 1.15367,-0.99515 0.77276,-0.67323 1.08535,-0.90557 1.19688,-0.88964 0.0831,0.0119 0.16115,0.075 0.17356,0.14003 0.0125,0.0652 -0.28667,0.6686 -0.66462,1.34097 -0.37795,0.67239 -0.70536,1.26988 -0.72757,1.32776 -0.036,0.0938 0.002,0.095 0.35736,0.0118 1.65357,-0.38907 3.03358,0.29786 3.95014,1.96628 0.66144,1.20398 0.797,2.03798 0.49504,3.04567 -0.70825,2.36351 -0.7284,2.4444 -0.72956,2.92652 -0.003,1.40064 -0.48844,3.94316 -0.76225,3.99588 -0.0621,0.0119 -0.22772,-0.14272 -0.40321,-0.37622 z"
       id="path3080"
       inkscape:connector-curvature="0" />
  </g>
</svg>
